Input #0, mov,mp4,m4a,3gp,3g2,mj2, from '/home/hbattu/projects/huberman-gpt/huberman-audio/mp3/tmp54eny55i.mp4':
  Metadata:
    major_brand     : dash
    minor_version   : 0
    compatible_brands: iso6mp41
    creation_time   : 2023-02-09T00:52:33.000000Z
  Duration: 02:26:43.96, start: 0.000000, bitrate: 129 kb/s
    Stream #0:0(eng): Audio: aac (LC) (mp4a / 0x6134706D), 44100 Hz, stereo, fltp, 0 kb/s (default)
    Metadata:
      creation_time   : 2023-02-09T00:52:33.000000Z
      handler_name    : ISO Media file produced by Google Inc.
Stream mapping:
  Stream #0:0 -> #0:0 (aac (native) -> mp3 (libmp3lame))
Press [q] to stop, [?] for help
[graph_0_in_0_0 @ 0x55afdc6e9540] tb:1/44100 samplefmt:fltp samplerate:44100 chlayout:0x3
Output #0, mp3, to '../huberman-audio/mp3/CGjdgy0cwGk.mp3':
  Metadata:
    major_brand     : dash
    minor_version   : 0
    compatible_brands: iso6mp41
    TSSE            : Lavf58.29.100
    Stream #0:0(eng): Audio: mp3 (libmp3lame), 44100 Hz, stereo, fltp, delay 1105 (default)
    Metadata:
      creation_time   : 2023-02-09T00:52:33.000000Z
      handler_name    : ISO Media file produced by Google Inc.
      encoder         : Lavc58.54.100 libmp3lame
No more output streams to write to, finishing.
size=  137563kB time=02:26:43.97 bitrate= 128.0kbits/s speed=96.7x    
[AVIOContext @ 0x55afdc6aa900] Statistics: 0 seeks, 183 writeouts
video:0kB audio:137562kB subtitle:0kB other streams:0kB global headers:0kB muxing overhead: 0.000246%
Input file #0 (/home/hbattu/projects/huberman-gpt/huberman-audio/mp3/tmp54eny55i.mp4):
  Input stream #0:0 (audio): 379155 packets read (140863390 bytes); 379155 frames decoded (388254720 samples); 
  Total: 379155 packets (140863390 bytes) demuxed
Output file #0 (../huberman-audio/mp3/CGjdgy0cwGk.mp3):
  Output stream #0:0 (audio): 337027 frames encoded (388254720 samples); 337028 packets muxed (140863947 bytes); 
  Total: 337028 packets (140863947 bytes) muxed
[AVIOContext @ 0x55afdc6ddf00] Statistics: 2 seeks, 539 writeouts
[AVIOContext @ 0x55afdc6b3880] Statistics: 142482986 bytes read, 0 seeks
